<svg width="619" height="417" viewBox="0 0 619 417" fill="none" xmlns="http://www.w3.org/2000/svg">
<path d="M301.268 96.7578C301.268 96.7578 11.1757 101.946 55.6045 235.536C100.033 369.126 422.795 427.127 466.875 414.782C510.955 402.448 622.207 114.392 301.268 96.7578Z" fill="#FFD6D6"/>
<path d="M533.215 240.003H281.271C279.111 240.003 277.355 238.248 277.355 236.087V66.5981C277.355 64.4374 279.111 62.6819 281.271 62.6819H533.215C535.376 62.6819 537.131 64.4374 537.131 66.5981V236.087C537.131 238.248 535.387 240.003 533.215 240.003Z" fill="#7796FE"/>
<path d="M533.215 79.6636H281.271C279.111 79.6636 277.355 77.9081 277.355 75.7474V66.587C277.355 64.4264 279.111 62.6708 281.271 62.6708H533.215C535.375 62.6708 537.131 64.4264 537.131 66.587V75.7474C537.131 77.9193 535.387 79.6636 533.215 79.6636Z" fill="#004D54"/>
<path d="M365.627 96.7578H301.269V197.083H365.627V96.7578Z" fill="#A2B7FD"/>
<path d="M520.442 96.7578H383.633V102.396H520.442V96.7578Z" fill="#698BFD"/>
<path d="M520.442 108.698H383.633V115.225H520.442V108.698Z" fill="#698BFD"/>
<path d="M459.786 67.431H287.078V76.7265H459.786V67.431Z" fill="white"/>
<path d="M509.447 75.2972C509.447 76.085 508.806 76.7264 508.018 76.7264C507.23 76.7264 506.589 76.085 506.589 75.2972C506.589 74.5095 507.23 73.868 508.018 73.868C508.806 73.868 509.447 74.5095 509.447 75.2972Z" fill="white"/>
<path d="M512.913 75.2972C512.913 76.085 512.272 76.7264 511.484 76.7264C510.696 76.7264 510.055 76.085 510.055 75.2972C510.055 74.5095 510.696 73.868 511.484 73.868C512.272 73.868 512.913 74.5095 512.913 75.2972Z" fill="white"/>
<path d="M516.379 75.2972C516.379 76.085 515.738 76.7264 514.95 76.7264C514.162 76.7264 513.521 76.085 513.521 75.2972C513.521 74.5095 514.162 73.868 514.95 73.868C515.738 73.868 516.379 74.5095 516.379 75.2972Z" fill="white"/>
<path d="M457.501 75.0609L456.128 72.6865C456.679 72.2363 457.039 71.5274 457.039 70.7396C457.039 69.378 455.993 68.2863 454.71 68.2863C453.427 68.2863 452.38 69.3892 452.38 70.7396C452.38 72.1013 453.427 73.1928 454.71 73.1928C455.025 73.1928 455.329 73.1253 455.61 73.0015L456.578 75.5448C456.589 75.5673 456.6 75.6011 456.612 75.6236C456.758 75.8825 457.073 75.9613 457.321 75.8037C457.568 75.6462 457.647 75.3198 457.501 75.0609ZM452.943 70.7396C452.943 69.7156 453.742 68.8715 454.71 68.8715C455.689 68.8715 456.477 69.7043 456.477 70.7396C456.477 71.775 455.678 72.6076 454.71 72.6076C453.742 72.6076 452.943 71.7637 452.943 70.7396Z" fill="#121841"/>
<path d="M481.471 67.431H466.875V76.2425H481.471V67.431Z" fill="#F57408"/>
<path d="M514.95 124.678H394.751V232.306H514.95V124.678Z" fill="#E4EDFF"/>
<path d="M454.845 141.805H407.243V187.303H454.845V141.805Z" fill="white"/>
<path d="M512.913 194.494H465.311V232.306H512.913V194.494Z" fill="white"/>
<path d="M485.218 130.057H427.049V134.952H485.218V130.057Z" fill="#F57408"/>
<path d="M512.913 141.805H463.206V144.247H512.913V141.805Z" fill="#698BFD"/>
<path d="M512.913 146.037H463.206V148.479H512.913V146.037Z" fill="#698BFD"/>
<path d="M512.913 150.279H463.206V152.721H512.913V150.279Z" fill="#698BFD"/>
<path d="M512.913 154.522H463.206V156.964H512.913V154.522Z" fill="#698BFD"/>
<path d="M512.913 158.765H463.206V161.206H512.913V158.765Z" fill="#698BFD"/>
<path d="M512.913 162.996H463.206V165.438H512.913V162.996Z" fill="#698BFD"/>
<path d="M512.913 167.238H463.206V169.68H512.913V167.238Z" fill="#698BFD"/>
<path d="M512.913 171.481H463.206V173.923H512.913V171.481Z" fill="#698BFD"/>
<path d="M512.913 175.723H463.206V178.166H512.913V175.723Z" fill="#698BFD"/>
<path d="M512.913 179.966H463.206V182.408H512.913V179.966Z" fill="#698BFD"/>
<path d="M512.913 184.197H463.206V186.639H512.913V184.197Z" fill="#698BFD"/>
<path d="M615.084 358.041H363.14C360.98 358.041 359.224 356.286 359.224 354.125V184.636C359.224 182.475 360.98 180.72 363.14 180.72H615.084C617.245 180.72 619 182.475 619 184.636V354.125C619 356.286 617.245 358.041 615.084 358.041Z" fill="#D5DFFE"/>
<path d="M615.084 197.702H363.14C360.98 197.702 359.224 195.946 359.224 193.785V184.625C359.224 182.464 360.98 180.709 363.14 180.709H615.084C617.244 180.709 619 182.464 619 184.625V193.785C619 195.957 617.244 197.702 615.084 197.702Z" fill="#004D54"/>
<path d="M447.486 214.807H383.127V315.132H447.486V214.807Z" fill="#698BFD"/>
<path d="M602.311 214.807H465.502V220.445H602.311V214.807Z" fill="#698BFD"/>
<path d="M602.311 226.736H465.502V233.263H602.311V226.736Z" fill="#698BFD"/>
<path d="M541.643 185.48H368.936V194.776H541.643V185.48Z" fill="white"/>
<path d="M591.305 193.335C591.305 194.123 590.664 194.764 589.876 194.764C589.088 194.764 588.447 194.123 588.447 193.335C588.447 192.548 589.088 191.906 589.876 191.906C590.664 191.906 591.305 192.548 591.305 193.335Z" fill="white"/>
<path d="M594.771 193.335C594.771 194.123 594.13 194.764 593.342 194.764C592.554 194.764 591.913 194.123 591.913 193.335C591.913 192.548 592.554 191.906 593.342 191.906C594.13 191.906 594.771 192.548 594.771 193.335Z" fill="white"/>
<path d="M598.237 193.335C598.237 194.123 597.596 194.764 596.808 194.764C596.021 194.764 595.379 194.123 595.379 193.335C595.379 192.548 596.021 191.906 596.808 191.906C597.596 191.906 598.237 192.548 598.237 193.335Z" fill="white"/>
<path d="M539.37 193.099L537.997 190.724C538.548 190.274 538.909 189.565 538.909 188.778C538.909 187.416 537.862 186.324 536.579 186.324C535.296 186.324 534.25 187.427 534.25 188.778C534.25 190.128 535.296 191.231 536.579 191.231C536.894 191.231 537.198 191.163 537.479 191.039L538.447 193.583C538.458 193.605 538.47 193.639 538.481 193.662C538.627 193.92 538.942 193.999 539.19 193.842C539.438 193.684 539.516 193.358 539.37 193.099ZM534.812 188.778C534.812 187.753 535.611 186.91 536.579 186.91C537.547 186.91 538.346 187.742 538.346 188.778C538.346 189.813 537.547 190.646 536.579 190.646C535.611 190.646 534.812 189.813 534.812 188.778Z" fill="#121841"/>
<path d="M563.329 185.48H548.733V194.292H563.329V185.48Z" fill="#F57408"/>
<path d="M596.808 242.716H476.609V350.344H596.808V242.716Z" fill="#E4EDFF"/>
<path d="M536.714 259.843H489.112V305.341H536.714V259.843Z" fill="white"/>
<path d="M594.771 312.544H547.169V350.355H594.771V312.544Z" fill="white"/>
<path d="M567.076 248.095H508.907V252.99H567.076V248.095Z" fill="#F57408"/>
<path d="M594.771 259.843H545.065V262.285H594.771V259.843Z" fill="#698BFD"/>
<path d="M594.771 264.086H545.065V266.528H594.771V264.086Z" fill="#698BFD"/>
<path d="M594.771 268.317H545.065V270.759H594.771V268.317Z" fill="#698BFD"/>
<path d="M594.771 272.56H545.065V275.002H594.771V272.56Z" fill="#698BFD"/>
<path d="M594.771 276.803H545.065V279.244H594.771V276.803Z" fill="#698BFD"/>
<path d="M594.771 281.045H545.065V283.487H594.771V281.045Z" fill="#698BFD"/>
<path d="M594.771 285.276H545.065V287.718H594.771V285.276Z" fill="#698BFD"/>
<path d="M594.771 289.519H545.065V291.961H594.771V289.519Z" fill="#698BFD"/>
<path d="M594.771 293.762H545.065V296.204H594.771V293.762Z" fill="#698BFD"/>
<path d="M594.771 298.004H545.065V300.446H594.771V298.004Z" fill="#698BFD"/>
<path d="M594.771 302.247H545.065V304.689H594.771V302.247Z" fill="#698BFD"/>
<path d="M225.15 402.74C287.898 402.74 338.765 397.234 338.765 390.44C338.765 383.647 287.898 378.14 225.15 378.14C162.402 378.14 111.535 383.647 111.535 390.44C111.535 397.234 162.402 402.74 225.15 402.74Z" fill="#2846A6"/>
<path d="M243.212 391.374H247.725L265.674 314.074L259.136 313.725L243.212 391.374Z" fill="#1F1A15"/>
<path d="M316.359 392.77H311.847L293.897 315.47L300.436 315.121L316.359 392.77Z" fill="#1F1A15"/>
<path d="M195.711 384.431H191.21L173.26 307.119L179.787 306.782L195.711 384.431Z" fill="#1F1A15"/>
<path d="M135.831 389.675H140.332L158.282 312.375L151.755 312.026L135.831 389.675Z" fill="#1F1A15"/>
<path d="M139.173 254.205V311.069C139.173 315.56 143.45 319.194 148.739 319.194H295.575C300.852 319.194 305.14 315.56 305.14 311.069V254.205C305.14 249.715 300.864 246.08 295.575 246.08H148.728C143.45 246.08 139.173 249.715 139.173 254.205Z" fill="#450000"/>
<path d="M148.727 246.08C154.005 246.08 158.293 249.715 158.293 254.205V289.744C158.293 294.234 162.569 297.869 167.858 297.869H226.005C231.08 297.869 235.233 294.504 235.548 290.262C235.571 240.848 235.571 257.897 235.571 254.205C235.571 249.715 239.847 246.08 245.136 246.08H295.574C300.852 246.08 305.14 249.715 305.14 254.205V311.069C305.14 315.56 300.863 319.194 295.574 319.194H148.727C143.449 319.194 139.162 315.56 139.162 311.069V254.205C139.173 249.715 143.449 246.08 148.727 246.08Z" fill="url(#paint0_linear)"/>
<path d="M235.537 290.262C235.548 264.322 235.559 256.692 235.559 254.768C235.559 254.757 235.559 254.757 235.559 254.746V254.633C235.559 254.622 235.559 254.622 235.559 254.611V254.599V254.588C235.559 254.543 235.559 254.498 235.559 254.453C235.559 254.442 235.559 254.419 235.559 254.408C235.559 254.363 235.559 254.318 235.559 254.296C235.559 254.284 235.559 254.262 235.559 254.25V254.205C235.559 249.715 239.836 246.08 245.125 246.08H295.563C300.841 246.08 305.129 249.715 305.129 254.205V311.069C305.129 315.56 300.852 319.194 295.563 319.194H226.5L225.994 297.869C231.069 297.869 235.222 294.504 235.537 290.262Z" fill="#FABF44"/>
<path d="M266.72 319.194H295.563C300.841 319.194 305.129 315.56 305.129 311.069V254.205C305.129 249.715 300.852 246.08 295.563 246.08H266.72C261.442 246.08 257.155 249.715 257.155 254.205V311.069C257.155 315.56 261.431 319.194 266.72 319.194Z" fill="#F15A24"/>
<path d="M222.438 139.363C222.438 139.363 206.975 136.73 201.574 147.41C196.161 158.089 196.678 182.239 204.038 188.496C211.398 194.753 210.171 210.767 216.62 215.493C223.068 220.22 239.498 222.358 239.498 211.228C239.498 211.228 231.485 212.59 229.46 205.647C229.46 205.647 240.95 211.037 246.565 202.811C252.181 194.596 240.117 193.83 240.117 193.83C240.117 193.83 244.855 196.16 237.787 194.933C230.72 193.718 235.334 191.951 235.334 185.975C235.334 180 239.701 184.22 238.463 173.237C237.202 162.242 227.704 138.981 222.438 139.363Z" fill="#0E1B29"/>
<path d="M185.11 375.102L183.613 385.568C183.613 385.568 180.822 393.479 180.822 394.638C180.822 395.403 182.139 401.649 185.627 402.695C187.417 403.236 194.754 395.234 195.733 391.611C196.87 387.379 194.079 374.168 194.079 374.168L185.11 375.102Z" fill="#FC7575"/>
<path d="M209.204 373.245C209.204 373.245 207.212 388.595 207.212 390.924C207.212 393.254 206.897 396.596 208.202 397.901C209.519 399.218 221.29 395.347 221.29 391.161C221.29 386.974 218.735 373.245 218.735 373.245H209.204Z" fill="#FC7575"/>
<path d="M234.648 235.964C234.648 225.475 234.209 191.377 234.209 191.377C234.209 191.377 228.008 187.18 215.596 187.18C211.601 187.18 207.932 186.493 203.96 187.225C195.576 188.744 187.957 192.334 187.957 192.334C187.957 192.334 190.523 224.507 186.506 246.463C185.797 250.346 188.824 253.902 192.774 253.902H231.981C234.626 253.902 236.64 251.527 236.201 248.916C235.301 243.357 234.648 238.687 234.648 235.964Z" fill="#FFDA88"/>
<path d="M190.489 253.226C184.131 258.155 182.769 259.843 180.969 262.072C166.845 279.402 170.908 302.933 177.334 302.055C183.748 301.166 197.016 298.871 207.291 301.009C217.565 303.147 240.668 302.505 242.807 294.167C244.236 288.607 236.64 269.263 232.521 253.913L190.489 253.226Z" fill="#464A7F"/>
<path d="M212.017 274.901L207.212 282.441C204.849 287.853 206.222 300.795 206.222 300.795L185.11 299.726L184.109 279.83L212.017 274.901Z" fill="#35385F"/>
<path d="M208.348 281.968C208.348 281.968 220.333 280.685 224.824 285.175C229.314 289.665 220.761 350.862 221.83 354.283C222.899 357.704 228.031 357.276 225.037 360.27C222.044 363.263 221.29 365.3 222.685 366.684C224.081 368.08 224.61 370.105 223.327 371.388C222.044 372.671 221.616 376.092 221.616 376.092H207.279C207.279 376.092 206.21 367.326 206.21 365.818C206.21 364.31 204.5 360.045 204.5 360.045C204.5 360.045 209.845 357.265 207.279 354.699C204.714 352.133 207.279 348.285 207.279 342.714C207.279 337.144 199.368 283.037 208.348 281.968Z" fill="#6B6E99"/>
<path d="M172.044 281.799C176.186 277.658 182.893 277.14 189.521 281.799C196.149 286.458 193.797 298.015 193.797 308.504C193.797 318.992 193.111 344.875 194.202 348.082C195.294 351.289 198.715 354.497 197.432 357.929C196.149 361.361 195.508 360.641 197.714 362.847C199.931 365.064 198.715 366.695 198.715 369.047C198.715 371.399 197.646 378.68 197.646 378.68H183.951C183.951 378.68 183.309 365.626 179.888 360.495C176.467 355.363 179.033 344.233 179.033 342.523C179.033 340.812 174.756 338.674 174.756 331.179C174.756 323.685 169.794 284.05 172.044 281.799Z" fill="#6B6E99"/>
<path d="M188.632 192.334C188.632 192.334 186.201 196.599 182.769 206.22C179.348 215.853 185.099 254.003 185.099 260.417C185.099 266.832 193.145 274.901 193.145 274.901L199.987 267.203L195.497 239.396L188.632 192.334Z" fill="#FD5E5A"/>
<path d="M234.22 191.377C234.22 191.377 244.09 193.808 247.094 207.503C250.11 221.199 252.552 253.294 251.607 257.143C250.662 260.991 225.848 272.897 225.848 272.897L223.755 268.689C223.755 268.689 242.57 252.427 242.57 250.075C242.57 247.723 234.513 218.273 234.513 218.273L234.22 191.377Z" fill="#FD5E5A"/>
<path d="M158.281 240.24L163.852 279.717L233.174 277.253L231.801 237.674L158.281 240.24Z" fill="#241145"/>
<path d="M195.351 392.635C188.891 396.731 184.086 396.292 180.834 394.739C180.924 395.82 182.263 401.683 185.639 402.707C187.259 403.202 193.539 396.551 195.351 392.635Z" fill="#ED1E79"/>
<path d="M221.29 391.149C221.29 390.215 221.166 388.82 220.964 387.199C217.239 390.553 212.253 392.759 207.437 387.841C207.291 389.292 207.201 390.418 207.201 390.924C207.201 393.254 206.886 396.596 208.191 397.901C209.519 399.207 221.29 395.336 221.29 391.149Z" fill="#ED1E79"/>
<path d="M222.629 171.323C222.629 171.323 222.089 172.505 221.279 174.362C218.454 180.776 220.243 190.623 220.39 192.334C220.671 195.766 218.837 202.811 218.837 202.811C218.837 202.811 205.389 193.403 204.635 187.225L211.927 164.898L222.629 171.323Z" fill="#FC7575"/>
<path d="M211.927 164.898L222.629 171.323C222.629 171.323 222.089 172.505 221.279 174.362C217.509 173.327 211.758 171.425 210.509 169.241L211.927 164.898Z" fill="#FD5E5A"/>
<path d="M214.516 146.678L230.687 155.602C230.687 155.602 234.04 155.681 234.04 151.945C234.04 148.209 229.922 144.54 225.724 142.413C221.526 140.286 216.271 139.352 216.271 139.352L214.516 146.678Z" fill="#0E1B29"/>
<path d="M220.389 142.638C220.389 142.638 226.646 143.707 228.323 146.678C230 149.649 230.461 156.75 232.138 158.427C233.815 160.104 235.278 160.475 235.278 160.475C235.278 160.475 235.728 161.251 234.04 162.084C232.363 162.928 233.635 163.84 234.67 163.84C235.717 163.84 234.839 165.82 234.04 166.057C234.04 166.057 235.075 166.361 234.884 167.351C234.693 168.341 234.197 168.532 234.197 168.532C234.197 168.532 234.141 169.827 234.681 171.053C235.21 172.269 233.916 175.892 225.735 174.294C225.735 174.294 213.57 171.436 212.838 168.004C212.118 164.571 206.705 152.091 211.319 147.477C215.922 142.863 220.389 142.638 220.389 142.638Z" fill="#FC7575"/>
<path d="M214.741 139.161C214.741 139.161 216.271 137.18 223.89 139.352C231.52 141.524 233.725 150.156 233.725 150.156C233.725 150.156 228.807 146.836 225.724 146.836C222.629 146.836 215.641 145.665 214.516 144.529C213.379 143.392 214.741 139.161 214.741 139.161Z" fill="#1B3753"/>
<path d="M216.327 138.463C217.396 138.463 223.552 146.138 221.729 151.866C219.895 157.583 215.551 155.028 212.805 156.559C210.059 158.089 213.334 165.145 212.839 168.004C212.344 170.862 204.635 187.225 204.635 187.225C204.635 187.225 198.153 152.643 202.08 146.228C206.019 139.825 216.327 138.463 216.327 138.463Z" fill="#1B3753"/>
<path d="M223.856 162.343C223.856 163.198 225.285 163.885 227.063 163.885C228.841 163.885 230.27 163.187 230.27 162.343C230.27 161.499 228.841 160.79 227.063 160.79C225.285 160.79 223.856 161.488 223.856 162.343Z" fill="#FD5E5A"/>
<path d="M231.553 155.602C231.553 155.602 230.507 157.718 226.219 157.617L231.553 155.602Z" fill="#1B3753"/>
<path d="M230.259 154.578C230.259 154.578 228.672 153.633 227.434 153.633C226.196 153.633 225.06 154.128 225.06 154.578C225.06 154.578 226.41 153.937 227.479 154.106C228.548 154.274 229.043 155.096 229.471 155.096C229.899 155.085 230.259 154.578 230.259 154.578Z" fill="#1B3753"/>
<path d="M212.489 162.276C212.489 162.276 218.42 176.016 206.514 191.377C194.608 206.738 178.436 200.515 176.264 194.303C174.092 188.091 181.7 185.964 181.7 185.964C181.7 185.964 180.248 192.998 184.119 192.66C187.991 192.322 189.318 191.411 187.765 183.848C186.213 176.275 191.828 179.313 194.923 174.351C198.017 169.399 194.923 165.607 194.923 159.755C194.923 153.903 202.091 146.228 202.091 146.228L212.489 162.276Z" fill="#1B3753"/>
<path d="M213.638 157.245C213.638 157.245 211.432 152.44 210.397 153.464C209.361 154.488 208.855 161.589 212.49 162.276C216.113 162.962 213.638 157.245 213.638 157.245Z" fill="#FC7575"/>
<path d="M213.48 157.83C213.48 157.83 212.343 155.208 211.725 155.827C211.106 156.446 211.77 160.565 212.602 160.565C213.424 160.576 213.683 159.147 213.48 157.83Z" fill="#FD5E5A"/>
<path d="M230.417 157.774C230.417 158.269 230.192 158.663 229.91 158.663C229.629 158.663 229.404 158.269 229.404 157.774C229.404 157.279 229.629 156.885 229.91 156.885C230.192 156.885 230.417 157.29 230.417 157.774Z" fill="#1B3753"/>
<path d="M119.063 189.745H169.141C171.414 189.745 173.26 192.48 173.26 195.856V210.069C173.26 213.445 171.414 216.18 169.141 216.18H166.879L173.26 235.536L153.285 216.18H119.063C116.79 216.18 114.944 213.445 114.944 210.069V195.856C114.944 192.48 116.79 189.745 119.063 189.745Z" fill="#5CA9FF"/>
<path d="M353.53 43.4161C353.17 43.4161 352.809 43.3148 352.494 43.1123C350.919 42.0995 349.298 41.0866 347.667 40.1075C346.755 39.5561 346.463 38.3858 347.014 37.4743C347.554 36.5627 348.736 36.2702 349.647 36.8216C351.313 37.8232 352.978 38.8585 354.576 39.8938C355.465 40.4677 355.724 41.6606 355.15 42.5496C354.779 43.1123 354.16 43.4161 353.53 43.4161Z" fill="#99D7FF"/>
<path d="M98.4242 322.402C98.1203 322.402 97.8052 322.323 97.5126 322.177C93.3938 319.948 90.029 318.103 87.5195 316.685C86.5967 316.167 86.2704 314.997 86.788 314.074C87.3169 313.151 88.4873 312.825 89.3988 313.354C91.8859 314.761 95.2282 316.595 99.3244 318.812C100.258 319.318 100.607 320.477 100.101 321.411C99.7633 322.042 99.0994 322.402 98.4242 322.402ZM74.8256 307.84C74.4317 307.84 74.0266 307.716 73.6777 307.457C70.5942 305.173 67.567 302.809 64.6749 300.424C63.8534 299.748 63.7409 298.544 64.4048 297.723C65.08 296.901 66.2841 296.789 67.1057 297.453C69.9528 299.793 72.935 302.123 75.9622 304.362C76.8174 304.993 76.9862 306.197 76.356 307.052C75.9847 307.57 75.4107 307.84 74.8256 307.84ZM53.6577 290.003C53.1738 290.003 52.7012 289.823 52.3298 289.474C49.5727 286.818 46.8719 284.084 44.3173 281.315C43.5971 280.539 43.6421 279.323 44.4186 278.603C45.1951 277.883 46.4105 277.928 47.1307 278.704C49.6402 281.416 52.2848 284.106 54.9969 286.706C55.7621 287.437 55.7846 288.652 55.0531 289.418C54.6593 289.8 54.1641 290.003 53.6577 290.003ZM35.1344 269.443C34.5605 269.443 33.9866 269.184 33.6152 268.7C31.2745 265.661 29.0125 262.544 26.9081 259.416C26.3117 258.538 26.548 257.345 27.4258 256.749C28.3036 256.164 29.4964 256.389 30.0929 257.266C32.1523 260.327 34.358 263.388 36.6537 266.348C37.3064 267.192 37.1488 268.396 36.3048 269.038C35.956 269.319 35.5396 269.443 35.1344 269.443ZM20.0548 246.238C19.3683 246.238 18.7043 245.867 18.3667 245.225C16.5662 241.86 14.8669 238.394 13.3252 234.917C12.8975 233.949 13.3251 232.812 14.293 232.385C15.2608 231.957 16.3974 232.385 16.825 233.353C18.333 236.74 19.9872 240.116 21.7428 243.402C22.2492 244.336 21.8891 245.495 20.955 246.002C20.6737 246.171 20.3586 246.238 20.0548 246.238ZM9.22887 220.771C8.41862 220.771 7.66464 220.254 7.40581 219.443C6.23545 215.82 5.18888 212.095 4.29985 208.392C4.05227 207.357 4.68246 206.322 5.71779 206.074C6.75311 205.827 7.78843 206.457 8.03601 207.492C8.91378 211.104 9.9266 214.728 11.0632 218.273C11.3896 219.286 10.8381 220.366 9.82533 220.693C9.61151 220.749 9.42018 220.771 9.22887 220.771ZM3.16324 193.774C2.21794 193.774 1.3852 193.076 1.26141 192.109C1.14887 191.242 1.03633 190.376 0.935047 189.498C0.597442 186.583 0.338609 183.623 0.158553 180.698C0.0910316 179.64 0.901291 178.728 1.95912 178.672C3.0057 178.616 3.92849 179.415 3.98475 180.472C4.15356 183.331 4.41239 186.223 4.73874 189.07C4.84002 189.925 4.9413 190.769 5.05383 191.625C5.18888 192.683 4.44614 193.639 3.39957 193.774C3.33205 193.774 3.24201 193.774 3.16324 193.774ZM1.92536 166.124C1.90285 166.124 1.86909 166.124 1.84658 166.124C0.788749 166.079 -0.0327562 165.19 0.0010043 164.132C0.1473 160.34 0.439891 156.503 0.845017 152.699C0.957552 151.641 1.90285 150.887 2.96068 151C4.01851 151.112 4.77249 152.057 4.65995 153.115C4.25483 156.829 3.98475 160.588 3.83845 164.279C3.79344 165.314 2.94943 166.124 1.92536 166.124ZM5.30141 138.666C5.16637 138.666 5.04257 138.654 4.90753 138.621C3.87221 138.407 3.19701 137.394 3.42208 136.347C4.18732 132.645 5.09885 128.898 6.11167 125.206C6.393 124.182 7.45082 123.586 8.47489 123.867C9.49896 124.149 10.0954 125.207 9.81406 126.231C8.8125 129.832 7.93473 133.5 7.18075 137.124C6.98944 138.036 6.19044 138.666 5.30141 138.666ZM13.0663 112.096C12.8413 112.096 12.6049 112.051 12.3799 111.972C11.3896 111.601 10.8944 110.487 11.2658 109.497C12.6162 105.952 14.1017 102.396 15.6771 98.9183C16.116 97.9505 17.2526 97.5342 18.2204 97.9731C19.1882 98.412 19.6046 99.5486 19.1657 100.516C17.624 103.915 16.1723 107.392 14.8444 110.858C14.563 111.624 13.8316 112.096 13.0663 112.096ZM24.8825 87.0572C24.5562 87.0572 24.2298 86.9783 23.9372 86.8095C23.0144 86.2806 22.6993 85.1103 23.217 84.1875C25.0963 80.8903 27.1107 77.6042 29.2038 74.4194C29.789 73.5304 30.9819 73.2941 31.8597 73.868C32.7487 74.4532 32.9963 75.646 32.4111 76.5238C30.363 79.641 28.3936 82.8596 26.548 86.0893C26.1992 86.7082 25.5465 87.0572 24.8825 87.0572ZM40.4123 64.145C39.996 64.145 39.5683 64.0099 39.2195 63.7286C38.3867 63.0646 38.2517 61.8606 38.9156 61.0279C41.2901 58.0457 43.7771 55.1085 46.3317 52.2951C47.0406 51.5074 48.256 51.4511 49.0438 52.1601C49.8315 52.8691 49.8878 54.0844 49.1788 54.8721C46.6805 57.6292 44.2385 60.5102 41.9203 63.4249C41.5377 63.8975 40.975 64.145 40.4123 64.145ZM59.2845 43.8887C58.7668 43.8887 58.2379 43.6749 57.8665 43.2585C57.1575 42.4708 57.2138 41.2554 58.0016 40.5464C60.8375 37.9806 63.8084 35.5049 66.8243 33.1867C67.6683 32.5453 68.8725 32.7027 69.5139 33.5468C70.1553 34.3908 69.9978 35.5949 69.1538 36.2364C66.2166 38.4871 63.3245 40.884 60.5786 43.3823C60.2073 43.7199 59.7459 43.8887 59.2845 43.8887ZM334.286 32.5114C333.994 32.5114 333.712 32.4439 333.431 32.3089C330.134 30.6659 326.701 29.0678 323.247 27.5711C322.279 27.1434 321.829 26.0181 322.256 25.0503C322.684 24.0825 323.809 23.6324 324.777 24.06C328.299 25.5905 331.777 27.211 335.142 28.8878C336.087 29.3604 336.481 30.5083 336.008 31.4649C335.671 32.1176 334.995 32.5114 334.286 32.5114ZM81.5664 27.5149C80.9137 27.5149 80.2723 27.1773 79.9121 26.5696C79.372 25.6581 79.6758 24.4764 80.5986 23.9475C83.8509 22.0344 87.2607 20.2114 90.7268 18.5234C91.6833 18.062 92.8312 18.4557 93.2926 19.4123C93.754 20.3688 93.3601 21.5167 92.4035 21.9781C89.0275 23.6099 85.7189 25.388 82.5455 27.2561C82.2304 27.4249 81.8928 27.5149 81.5664 27.5149ZM308.786 21.7306C308.572 21.7306 308.358 21.6968 308.144 21.6181C304.656 20.3802 301.055 19.1986 297.465 18.0957C296.452 17.7806 295.878 16.7115 296.193 15.6987C296.508 14.6859 297.577 14.112 298.59 14.4271C302.236 15.5412 305.894 16.7452 309.439 18.0056C310.44 18.3657 310.958 19.4574 310.609 20.4589C310.316 21.2354 309.574 21.7306 308.786 21.7306ZM106.639 15.8338C105.851 15.8338 105.109 15.3499 104.839 14.5621C104.479 13.5605 104.996 12.4689 105.998 12.1088C109.52 10.8484 113.189 9.66679 116.914 8.60896C117.938 8.31637 118.996 8.91285 119.288 9.92567C119.581 10.9497 118.984 12.0075 117.971 12.3001C114.337 13.3355 110.747 14.4946 107.303 15.7212C107.078 15.8 106.853 15.8338 106.639 15.8338ZM282.228 13.8644C282.081 13.8644 281.924 13.8418 281.777 13.8081C278.199 12.9416 274.496 12.1201 270.783 11.3549C269.747 11.1411 269.072 10.1282 269.286 9.09292C269.5 8.0576 270.513 7.3823 271.548 7.59612C275.307 8.36135 279.054 9.19421 282.678 10.0832C283.713 10.3308 284.343 11.3661 284.096 12.4014C283.882 13.2792 283.094 13.8644 282.228 13.8644ZM133.355 8.57516C132.455 8.57516 131.656 7.9451 131.476 7.02231C131.273 5.98699 131.948 4.97417 132.995 4.77161C136.641 4.06264 140.433 3.42112 144.271 2.8697C145.306 2.7234 146.297 3.45483 146.443 4.5014C146.589 5.54798 145.858 6.52709 144.811 6.67339C141.041 7.21356 137.316 7.84379 133.726 8.54151C133.603 8.56402 133.479 8.57516 133.355 8.57516ZM255.05 8.53024C254.949 8.53024 254.859 8.51897 254.758 8.50771C251.089 7.94504 247.33 7.42739 243.583 6.97725C242.536 6.85347 241.783 5.89689 241.906 4.83906C242.03 3.78123 242.998 3.04977 244.044 3.1623C247.826 3.62369 251.629 4.14136 255.332 4.71529C256.378 4.87284 257.099 5.85183 256.941 6.8984C256.795 7.8437 255.973 8.53024 255.05 8.53024ZM227.524 5.34541C227.468 5.34541 227.423 5.34554 227.367 5.33429C223.676 5.0417 219.883 4.78282 216.102 4.58025C215.044 4.52399 214.234 3.62365 214.29 2.55457C214.346 1.49674 215.224 0.709009 216.316 0.74277C220.131 0.956586 223.957 1.20422 227.682 1.50807C228.74 1.5981 229.527 2.52085 229.437 3.57867C229.347 4.58024 228.515 5.34541 227.524 5.34541ZM160.814 4.90665C159.823 4.90665 158.979 4.14133 158.9 3.13977C158.81 2.08194 159.598 1.15919 160.656 1.06917C164.325 0.776574 168.162 0.540256 172.045 0.371454C173.08 0.315186 174.003 1.14795 174.048 2.20578C174.093 3.26361 173.271 4.16392 172.213 4.20894C168.376 4.37774 164.595 4.61405 160.971 4.89538C160.915 4.89538 160.859 4.90665 160.814 4.90665ZM199.841 3.97252C199.829 3.97252 199.807 3.97252 199.796 3.97252C196.127 3.89375 192.526 3.84875 189.116 3.84875H188.508C187.451 3.84875 186.584 2.99353 186.584 1.92444C186.584 0.85536 187.439 0 188.508 0H189.116C192.56 0 196.183 0.0451349 199.886 0.123909C200.944 0.146416 201.788 1.02418 201.765 2.08201C201.731 3.13984 200.876 3.97252 199.841 3.97252Z" fill="#99D7FF"/>
<path d="M409.268 60.0712L352.731 25.8156L338.889 39.9388L409.268 60.0712Z" fill="#0A4CFE"/>
<path d="M352.719 68.005L353.53 41.5029L409.268 60.0712L352.719 68.005Z" fill="#99D7FF"/>
<path d="M352.663 3.88254L409.268 60.0712L352.731 25.8156L352.663 3.88254Z" fill="#99D7FF"/>
<path d="M338.889 39.9388L353.529 41.5029L353.417 45.3517L338.889 39.9388Z" fill="#0033BF"/>
<defs>
<linearGradient id="paint0_linear" x1="135.625" y1="267.066" x2="312.533" y2="298.9" gradientUnits="userSpaceOnUse">
<stop stop-color="#F57939"/>
<stop offset="1" stop-color="#FFFB4D"/>
</linearGradient>
</defs>
</svg>
